<?xml version="1.0" encoding="UTF-8" standalone="no"?>
<svg width="300" height="300" viewBox="0 0 300 300" xmlns="http://www.w3.org/2000/svg">
  <rect width="300" height="300" rx="50" ry="50" fill="#0f1d2d"/>
  <g id="chuckNorrisAI" fill="#ff9900">
    <!-- Stylized Chuck Norris silhouette -->
    <path d="M100,95 C110,85 120,80 135,85 C145,88 150,92 155,100 C160,90 165,87 175,85 C185,83 195,85 205,90 C215,95 220,105 220,115 C220,125 215,135 205,140 C215,145 220,155 220,165 C220,175 215,185 205,190 C195,195 185,197 175,195 C165,193 160,190 155,180 C150,190 145,193 135,195 C125,197 115,195 105,190 C95,185 90,175 90,165 C90,155 95,145 105,140 C95,135 90,125 90,115 C90,105 95,95 105,90 Z" />
    
    <!-- Beard/face details -->
    <path d="M130,120 C135,115 145,115 150,120 C155,115 165,115 170,120 C175,125 177,135 175,140 C173,145 170,150 165,155 C160,160 155,162 150,160 C145,162 140,160 135,155 C130,150 127,145 125,140 C123,135 125,125 130,120 Z" />
    
    <!-- Circuit pattern elements -->
    <circle cx="230" cy="90" r="10" />
    <circle cx="260" cy="120" r="8" />
    <circle cx="240" cy="150" r="12" />
    <circle cx="260" cy="180" r="10" />
    <circle cx="230" cy="210" r="8" />
    
    <!-- Circuit lines -->
    <path d="M205,100 L230,90" stroke="#ff9900" stroke-width="4" fill="none" />
    <path d="M220,120 L260,120" stroke="#ff9900" stroke-width="4" fill="none" />
    <path d="M215,150 L240,150" stroke="#ff9900" stroke-width="4" fill="none" />
    <path d="M220,180 L260,180" stroke="#ff9900" stroke-width="4" fill="none" />
    <path d="M205,190 L230,210" stroke="#ff9900" stroke-width="4" fill="none" />
  </g>
  
  <!-- AI Text -->
  <text x="230" y="250" font-family="Arial, sans-serif" font-size="60" font-weight="bold" fill="#ff9900">AI</text>
  
  <!-- CHUCK NORRIS Text -->
  <text x="80" y="250" font-family="Arial, sans-serif" font-size="30" font-weight="bold" fill="#ffffff">CHUCK</text>
  <text x="80" y="280" font-family="Arial, sans-serif" font-size="30" font-weight="bold" fill="#ffffff">NORRIS</text>
</svg> 